<svg width="270" height="270" viewBox="0 0 270 270" fill="none" xmlns="http://www.w3.org/2000/svg">
<path fill-rule="evenodd" clip-rule="evenodd" d="M119.439 0.146034C118.614 0.344034 114.564 1.05003 110.439 1.71503C100.328 3.34403 84.62 8.56903 74.363 13.715C37.683 32.116 11.924 65.096 2.22599 106.075C0.44199 113.612 0.0579907 118.382 0.0039907 133.686C-0.0680093 154.159 0.792991 160.304 5.97199 176.262C20.998 222.564 59.793 257.201 107.939 267.298C119.167 269.653 148.116 269.941 158.939 267.804C215.88 256.566 258.629 212.261 268.073 154.698C269.988 143.022 269.447 118.816 267.024 107.771C256.905 61.654 224.918 24.328 181.51 7.98903C166.969 2.51503 156.016 0.545034 137.939 0.154034C128.589 -0.0479663 120.264 -0.0519662 119.439 0.146034ZM206.425 102.774C206.439 103.378 114.693 189.985 113.559 190.438C113.213 190.576 100.338 178.092 84.949 162.696L56.969 134.703L64.938 126.687L72.907 118.671L93.425 139.172L113.944 159.673L152.879 122.991L191.815 86.309L199.113 94.248C203.127 98.614 206.418 102.451 206.425 102.774Z" fill="black" fill-opacity="0.39"/>
</svg>
